<?xml version="1.0" standalone="no"?>
<!DOCTYPE svg PUBLIC "-//W3C//DTD SVG 20010904//EN"
 "http://www.w3.org/TR/2001/REC-SVG-20010904/DTD/svg10.dtd">
<svg version="1.0" xmlns="http://www.w3.org/2000/svg"
 width="264.000000pt" height="191.000000pt" viewBox="0 0 264.000000 191.000000"
 preserveAspectRatio="xMidYMid meet">

<g transform="translate(0.000000,191.000000) scale(0.100000,-0.100000)"
fill="#000000" stroke="none">
<path d="M1159 1573 c-15 -2 -37 -15 -50 -29 l-24 -26 -2 -541 c-2 -421 0
-548 10 -567 25 -51 65 -60 262 -59 209 0 242 8 267 59 16 32 18 80 18 555 0
475 -2 523 -18 555 -25 52 -58 59 -262 58 -96 -1 -187 -3 -201 -5z m432 -52
c18 -22 19 -47 19 -556 0 -509 -1 -534 -19 -556 -19 -24 -23 -24 -223 -27
-195 -3 -205 -2 -231 18 l-27 21 0 540 0 540 25 25 25 25 206 -3 c202 -3 206
-3 225 -27z"/>
<path d="M1140 1501 c-16 -31 -14 -1052 3 -1074 11 -16 33 -17 222 -15 l210 3
3 539 c1 390 -1 543 -9 552 -9 11 -55 14 -215 14 -191 0 -204 -1 -214 -19z
m390 -240 c7 -17 9 -40 4 -53 -6 -20 -9 -16 -20 27 -7 28 -13 51 -14 53 0 1 4
2 9 2 5 0 14 -13 21 -29z m-23 -63 c-3 -7 -5 -2 -5 12 0 14 2 19 5 13 2 -7 2
-19 0 -25z m17 -90 c4 -40 8 -125 11 -188 4 -80 9 -118 18 -125 9 -6 14 -32
14 -72 0 -70 -2 -71 -89 -65 l-46 4 9 31 c7 22 6 39 -3 56 -11 19 -10 25 5 36
9 6 20 27 24 45 6 30 4 33 -13 26 -38 -16 -54 -18 -67 -9 -6 6 -21 13 -32 16
-19 7 -19 6 -2 -7 11 -8 17 -27 17 -51 0 -36 -1 -37 -27 -30 -16 3 -41 20 -58
36 -25 25 -30 37 -30 80 0 46 4 54 37 85 35 31 43 34 103 34 l65 0 0 30 c0 20
5 30 15 30 12 0 15 13 15 55 0 41 4 55 14 55 10 0 16 -19 20 -72z m-165 -2 c7
-8 11 -29 9 -47 -2 -25 -8 -33 -26 -36 -60 -9 -102 -64 -102 -133 0 -68 36
-111 113 -134 19 -6 23 -46 7 -77 -14 -25 -46 -24 -53 2 -4 16 -12 20 -39 17
-24 -2 -33 1 -34 12 -1 8 -2 20 -3 27 0 6 -13 13 -28 15 -25 3 -28 6 -25 36 3
27 -1 35 -17 39 -25 6 -27 20 -4 45 15 17 15 19 0 36 -21 23 -22 42 -3 42 24
0 40 28 26 45 -16 19 -4 35 26 35 13 0 25 6 26 13 0 6 2 19 2 27 1 11 11 14
35 12 26 -2 34 2 38 18 6 23 35 26 52 6z"/>
<path d="M1450 975 c6 -15 6 -26 0 -30 -13 -8 -13 -35 1 -35 20 0 39 29 39 59
0 26 -4 31 -25 31 -22 0 -24 -3 -15 -25z"/>
<path d="M1370 941 c0 -6 -6 -11 -14 -11 -8 0 -17 -7 -20 -16 -4 -10 -2 -13 7
-7 6 4 20 6 30 5 18 -3 24 22 7 33 -5 3 -10 1 -10 -4z"/>
<path d="M560 1390 c-58 -38 -108 -71 -112 -72 -4 -2 5 -76 20 -166 l28 -163
18 71 c20 77 29 77 40 0 6 -43 4 -50 -46 -125 -29 -43 -60 -82 -68 -88 -11 -6
-47 -2 -113 13 l-97 22 0 108 0 108 30 7 c40 9 46 21 14 29 -15 4 -28 6 -29 4
-11 -13 -75 -119 -75 -124 0 -4 9 -42 21 -84 18 -70 24 -79 57 -97 20 -12 56
-24 78 -28 39 -6 43 -9 54 -50 12 -41 11 -47 -15 -92 -15 -26 -38 -60 -52 -74
-24 -26 -24 -27 -12 -120 6 -52 14 -97 18 -100 3 -4 44 -9 91 -13 l85 -7 -29
30 c-16 16 -41 35 -57 41 -16 7 -29 15 -29 19 0 20 45 73 99 116 44 35 71 67
92 107 20 40 43 66 76 89 27 18 50 34 52 35 3 3 -6 32 -25 79 -6 14 5 9 38
-18 l46 -38 79 20 c60 15 95 19 151 14 39 -3 72 -3 72 0 0 4 -7 24 -16 46
l-15 38 -75 5 c-41 3 -76 7 -79 10 -9 8 47 143 66 160 21 18 64 107 55 115 -2
3 -27 2 -53 -2 -49 -6 -49 -7 -97 -86 -26 -43 -50 -79 -54 -79 -7 1 -123 144
-137 170 -4 8 5 3 21 -11 35 -31 76 -59 86 -59 16 0 7 34 -13 57 l-22 22 27
11 c15 5 40 10 55 10 21 0 36 10 56 36 15 19 25 37 24 38 -19 16 -117 36 -172
36 -69 0 -70 0 -52 20 12 14 31 20 59 20 l40 0 -47 30 c-26 17 -49 30 -50 30
-1 0 -49 -32 -107 -70z m246 -97 c-2 -3 -17 -1 -33 4 l-28 10 30 16 c29 15 30
14 33 -5 2 -11 1 -22 -2 -25z"/>
<path d="M1990 1425 l-45 -24 41 -1 c26 0 51 -7 65 -20 l24 -19 -71 -1 c-57 0
-154 -21 -173 -36 -11 -10 35 -74 53 -74 28 0 96 -22 96 -31 0 -11 -41 -23
-69 -20 -21 3 -23 0 -17 -26 4 -15 11 -32 16 -37 11 -11 93 36 119 70 23 29
27 25 10 -9 -16 -30 -109 -147 -117 -147 -4 0 -26 34 -50 75 -24 41 -47 77
-51 80 -5 2 -34 8 -66 11 l-57 7 12 -24 c7 -13 28 -47 46 -75 33 -49 74 -151
74 -182 0 -12 -13 -14 -74 -9 l-75 5 -15 -46 c-9 -25 -16 -48 -16 -50 0 -3 35
-2 78 1 61 5 93 2 154 -14 l78 -21 36 32 c20 17 38 29 40 27 3 -3 -5 -20 -16
-40 l-21 -35 58 -31 c53 -29 60 -36 81 -91 20 -50 35 -70 90 -116 37 -31 77
-69 90 -85 l23 -28 -38 -20 c-21 -10 -49 -31 -63 -46 l-25 -27 85 7 c47 4 86
8 87 9 1 1 12 46 23 101 22 97 22 99 2 114 -10 9 -35 43 -55 76 -32 54 -35 65
-27 99 10 43 23 56 60 56 14 0 46 10 70 23 45 22 45 23 58 97 l14 75 -31 68
c-31 66 -42 76 -71 57 -12 -7 -9 -11 16 -20 28 -10 32 -16 38 -63 7 -63 8
-167 1 -167 -3 0 -46 -9 -96 -20 -50 -11 -99 -18 -108 -15 -9 2 -40 40 -70 84
l-53 79 7 61 c8 71 20 72 30 3 3 -26 9 -53 13 -59 4 -6 18 58 31 143 12 86 21
157 19 158 -6 6 -219 136 -221 136 -1 -1 -22 -12 -47 -25z m-30 -115 c0 -4
-11 -10 -25 -12 -21 -4 -25 -1 -25 18 0 22 2 23 25 12 14 -6 25 -14 25 -18z"/>
<path d="M780 1165 c0 -43 14 -45 35 -5 20 38 19 40 -10 40 -22 0 -25 -4 -25
-35z"/>
<path d="M636 674 c-42 -37 -74 -70 -71 -72 2 -3 15 -10 27 -16 13 -6 24 -21
26 -33 3 -18 -2 -22 -27 -25 l-31 -3 47 -77 48 -78 58 0 c54 0 57 1 57 25 0
19 -7 26 -32 33 -31 8 -33 11 -36 56 -2 27 1 94 7 149 5 56 9 103 7 105 -2 1
-38 -27 -80 -64z"/>
<path d="M2001 591 l4 -154 -42 -12 c-23 -7 -54 -22 -69 -34 l-28 -22 94 3 93
3 48 78 c46 74 47 77 24 77 -32 0 -44 36 -18 55 10 8 21 15 26 15 19 0 2 22
-64 80 l-71 64 3 -153z"/>
<path d="M780 395 c0 -21 4 -25 31 -25 27 0 30 2 19 16 -8 8 -22 20 -32 25
-15 8 -18 6 -18 -16z"/>
</g>
</svg>
